<svg width="60" height="32" viewBox="0 0 60 32" fill="none" xmlns="http://www.w3.org/2000/svg">
<path fill-rule="evenodd" clip-rule="evenodd" d="M11.6265 31.9999V18.1484H21.6047L22.6753 20.1997L23.7813 18.1484H59.9999V31.0446C59.9999 31.0446 59.0527 31.986 57.9573 31.9999H37.9023L36.6952 29.8164V31.9999H32.7399V28.2726C32.7399 28.2726 32.1996 28.7929 31.0316 28.7929H29.6853V31.9999H23.6966L22.6276 29.9046L21.5421 31.9999H11.6265ZM0 7.71042L2.24504 0H6.12759L7.40167 4.31906V0H12.228L12.9865 3.12169L13.7218 0H35.3872V1.56938C35.3872 1.56938 36.5262 0 38.3979 0L45.4276 0.0361921L46.6796 4.29873V0H50.7186L51.8302 2.44849V0H55.9063V13.8515H51.8302L50.7649 11.395V13.8515H44.8308L44.234 11.668H42.6387L42.0517 13.8515H38.0274C36.4168 13.8515 35.3872 12.3141 35.3872 12.3141V13.8515H29.3195L28.1152 11.668V13.8515H5.55241L4.95606 11.668H3.36586L2.77372 13.8515H0V7.71042ZM0.0117188 12.0747L3.03978 1.70312H5.33543L8.3606 12.0747H6.34575L5.78993 9.99781H2.54186L1.98314 12.0747H0.0117188ZM5.15049 7.74638L4.16043 4.11719L3.16748 7.74638H5.15049ZM8.56787 12.0747V1.70312L11.3694 1.71845L12.9988 8.40537L14.5893 1.70312H17.3684V12.0747H15.6083V4.43248L13.7425 12.0747H12.1989L10.328 4.43248V12.0747H8.56787ZM18.5728 12.0747V1.70312H24.3162V4.02308H20.3514V5.79716H24.2236V7.98064H20.3514V9.82295H24.3162V12.0747H18.5728ZM25.3374 12.0747V1.70312H29.2542C30.552 1.70312 31.7149 2.88537 31.7149 5.06791C31.7149 6.93367 30.7344 8.13542 29.784 8.25357L32.0999 12.0747H29.949L27.8386 8.39004H27.0975V12.0747H25.3374ZM29.1106 4.02344H27.0986V6.20692H29.1366C29.4894 6.20692 29.9443 5.80421 29.9443 5.11518C29.9443 4.5796 29.5932 4.02344 29.1106 4.02344ZM34.2293 12.0747H32.4321V1.70312H34.2293V12.0747ZM38.4923 12.0747H38.1044C36.2275 12.0747 35.0879 9.89632 35.0879 6.93155C35.0879 3.89353 36.2147 1.70312 38.5849 1.70312H40.5303V4.15954H38.5138C37.5516 4.15954 36.8711 5.26571 36.8711 6.95713C36.8711 8.96571 37.6492 9.8093 38.7702 9.8093H39.2334L38.4923 12.0747ZM39.2915 12.0747L42.3196 1.70312H44.6152L47.6404 12.0747H45.6255L45.0697 9.99781H41.8216L41.2629 12.0747H39.2915ZM44.4298 7.74638L43.4397 4.11719L42.4468 7.74638H44.4298ZM47.8472 12.0747V1.70312H50.0849L52.9422 8.21946V1.70312H54.7023V12.0747H52.5369L49.6073 5.38776V12.0747H47.8472ZM12.8306 30.2308V19.8592H18.574V22.1792H14.6092V23.9533H18.4814V26.1367H14.6092V27.9791H18.574V30.2308H12.8306ZM40.9727 30.2308V19.8592H46.7161V22.1792H42.7513V23.9533H46.605V26.1367H42.7513V27.9791H46.7161V30.2308H40.9727ZM18.7966 30.2308L21.593 25.109L18.73 19.8592H20.9475L22.6526 23.1046L24.3635 19.8592H26.4941L23.6687 25.045L26.4703 30.2308H24.2532L22.5976 27.0366L20.9822 30.2308H18.7966ZM26.6807 30.227V19.8555H30.5685C32.1638 19.8555 33.0958 21.3701 33.0958 23.3439C33.0958 25.7266 31.9075 26.9518 30.3398 26.9518H28.4871V30.227H26.6807ZM30.4375 22.1992H28.4863V24.5874H30.4317C30.9458 24.5874 31.306 24.0855 31.306 23.3933C31.306 22.6565 30.9439 22.1992 30.4375 22.1992ZM33.8599 30.227V19.8555H37.7767C39.0745 19.8555 40.2373 21.0377 40.2373 23.2202C40.2373 25.086 39.2569 26.2877 38.3064 26.4059L40.6223 30.227H38.4714L36.3611 26.5424H35.62V30.227H33.8599ZM37.6331 22.1758H35.6211V24.3593H37.6591C38.0119 24.3593 38.4668 23.9566 38.4668 23.2675C38.4668 22.7319 38.1157 22.1758 37.6331 22.1758ZM47.5326 30.2308V27.9791H51.0551C51.5763 27.9791 51.802 27.5641 51.802 27.1091C51.802 26.6731 51.577 26.2323 51.0551 26.2323H49.4633C48.0797 26.2323 47.3091 24.9904 47.3091 23.1259C47.3091 21.4629 48.0147 19.8592 50.0708 19.8592H53.4984L52.7573 22.1928H49.7929C49.2262 22.1928 49.0518 22.6309 49.0518 23.0492C49.0518 23.4791 49.2674 23.9533 49.7003 23.9533H51.3677C52.9101 23.9533 53.5794 25.2421 53.5794 26.93C53.5794 28.7445 52.8336 30.2308 51.2838 30.2308H47.5326ZM53.7328 30.2308V27.9791H57.2553C57.7765 27.9791 58.0022 27.5641 58.0022 27.1091C58.0022 26.6731 57.7772 26.2323 57.2553 26.2323H55.6635C54.2799 26.2323 53.5093 24.9904 53.5093 23.1259C53.5093 21.4629 54.2149 19.8592 56.271 19.8592H59.6986L58.9575 22.1928H55.9931C55.4264 22.1928 55.252 22.6309 55.252 23.0492C55.252 23.4791 55.4676 23.9533 55.9005 23.9533H57.5679C59.1103 23.9533 59.7796 25.2421 59.7796 26.93C59.7796 28.7445 59.0338 30.2308 57.484 30.2308H53.7328Z" fill="#006FCF"/>
</svg>
