<svg width="13" height="9" viewBox="0 0 13 9" fill="none" xmlns="http://www.w3.org/2000/svg">
<path fill-rule="evenodd" clip-rule="evenodd" d="M12.1342 0.679053H9.59848C9.38246 0.679053 9.19573 0.800138 9.16255 0.964635L9.0502 1.50852L8.87301 1.31142C8.32409 0.700342 7.0998 0.496094 5.87811 0.496094C3.0758 0.496094 0.682526 2.12376 0.21645 4.40692C-0.0258052 5.54576 0.318601 6.63486 1.16118 7.39431C1.93393 8.09254 3.03958 8.38361 4.35496 8.38361C6.6129 8.38361 7.86473 7.27023 7.86473 7.27023L7.75174 7.81062C7.70923 8.0172 7.91679 8.20249 8.18702 8.20249H10.471C10.8343 8.20249 11.1409 8.00057 11.1982 7.72563L12.5687 1.06975C12.612 0.864839 12.4051 0.679053 12.1342 0.679053ZM8.59952 4.46398C8.35488 5.57487 7.20519 6.32068 5.73865 6.32068C5.00234 6.32068 4.41394 6.13955 4.03592 5.79642C3.66115 5.45562 3.51887 4.97044 3.63794 4.43005C3.86653 3.32864 5.03552 2.55838 6.47973 2.55838C7.19977 2.55838 7.78513 2.74201 8.17074 3.08796C8.55701 3.43775 8.71034 3.92592 8.59952 4.46398Z" fill="#28356A"/>
</svg>
